<svg width="54" height="54" viewBox="0 0 20 20" fill="none" xmlns="http://www.w3.org/2000/svg">
<path fill-rule="evenodd" clip-rule="evenodd" d="M18.75 9.99981C18.75 9.83405 18.6842 9.67508 18.5669 9.55787C18.4497 9.44066 18.2908 9.37481 18.125 9.37481H3.3837L7.3175 5.44231C7.4349 5.32495 7.5008 5.16578 7.5008 4.99981C7.5008 4.83384 7.4349 4.67467 7.3175 4.55731C7.2001 4.43995 7.041 4.37402 6.875 4.37402C6.709 4.37402 6.5499 4.43995 6.4325 4.55731L1.4325 9.55731C1.3743 9.61537 1.3281 9.68434 1.2966 9.76027C1.2651 9.8362 1.2489 9.9176 1.2489 9.99981C1.2489 10.082 1.2651 10.1634 1.2966 10.2394C1.3281 10.3153 1.3743 10.3843 1.4325 10.4423L6.4325 15.4423C6.5499 15.5597 6.709 15.6256 6.875 15.6256C7.041 15.6256 7.2001 15.5597 7.3175 15.4423C7.4349 15.325 7.5008 15.1658 7.5008 14.9998C7.5008 14.8338 7.4349 14.6747 7.3175 14.5573L3.3837 10.6248H18.125C18.2908 10.6248 18.4497 10.559 18.5669 10.4418C18.6842 10.3245 18.75 10.1656 18.75 9.99981Z" fill="currentColor"/>
</svg>